<svg xmlns="http://www.w3.org/2000/svg" viewBox="0 0 104 104" width="100%">
  <defs>
    <marker id="e" viewBox="0 0 10 10" refX="8" refY="5" markerWidth="4" markerHeight="4" orient="auto">
      <path d="M2 1L8 5L2 9" fill="none" stroke="#534AB7" stroke-width="1.5" stroke-linecap="round" stroke-linejoin="round"/>
    </marker>
  </defs>
  
  <rect x="-52" y="-52" width="104" height="104" rx="20" fill="#EEEDFE" stroke="#CECBF6" stroke-width="0.5" transform="translate(52,52)"/>
  
  <!-- 左上角加粗加大双行 -->
  <g transform="translate(13,9)">
    <text font-family="sans-serif" font-size="15" font-weight="700" fill="#3C3489" font-style="italic">Clinical</text>
    <text y="20" font-family="sans-serif" font-size="15" font-weight="700" fill="#3C3489" font-style="italic">Trial</text>
  </g>
  
  <!-- 多层淡色背景曲线 -->
  <g transform="translate(22,47)" opacity="0.3">
    <path d="M0 30 C8 30,14 24,20 16 C26 8,32 -2,38 -10 C44 -18,52 -22,60 -22 C68 -22,76 -16,82 -8 C88 0,94 10,100 18" fill="none" stroke="#AFA9EC" stroke-width="0.8"/>
  </g>
  
  <g transform="translate(22,47)" opacity="0.25">
    <path d="M0 34 C8 34,14 28,20 20 C26 14,32 4,38 -4 C44 -12,52 -16,60 -14 C68 -12,76 -6,82 2 C88 10,94 18,100 24" fill="none" stroke="#CECBF6" stroke-width="0.8"/>
  </g>
  
  <!-- 主钟形曲线 -->
  <g transform="translate(22,47)">
    <path d="M0 34 C8 34,14 28,20 20 C26 12,32 2,38 -6 C44 -14,52 -18,60 -18 C68 -18,76 -14,82 -6 C88 2,94 12,100 20 C106 28,112 34,120 34" fill="none" stroke="#534AB7" stroke-width="2.5" stroke-linecap="round" stroke-linejoin="round"/>
    
    <!-- power 区（青绿填充） -->
    <path d="M60 -18 C68 -18,76 -14,82 -6 C88 2,94 12,100 20 C106 28,112 34,120 34 L120 34 L0 34 L0 34 C8 34,14 28,20 20 C26 12,32 2,38 -6 C44 -14,52 -18,60 -18 Z" fill="#9FE1CB" opacity="0.75"/>
    
    <!-- α 阈值线 -->
    <line x1="82" y1="38" x2="82" y2="-22" stroke="#D85A30" stroke-width="1.5"/>
    
    <!-- α 标注 -->
    <text x="86" y="-12" font-family="sans-serif" font-size="8" font-weight="500" fill="#D85A30">α</text>
    
    <!-- 峰顶十字（临床医学标识） -->
    <g transform="translate(60,-22)">
      <line x1="-3.5" y1="0" x2="3.5" y2="0" stroke="#D85A30" stroke-width="1.8"/>
      <line x1="0" y1="-3.5" x2="0" y2="3.5" stroke="#D85A30" stroke-width="1.8"/>
    </g>
  </g>
</svg>